<?xml version="1.0" encoding="UTF-8" standalone="no" ?>
<!DOCTYPE svg PUBLIC "-//W3C//DTD SVG 1.1//EN" "http://www.w3.org/Graphics/SVG/1.1/DTD/svg11.dtd">
<svg xmlns="http://www.w3.org/2000/svg" xmlns:xlink="http://www.w3.org/1999/xlink" version="1.1" width="1080" height="1080" viewBox="0 0 1080 1080" xml:space="preserve">
<desc>Created with Fabric.js 5.2.4</desc>
<defs>
</defs>
<g transform="matrix(1 0 0 1 540 540)" id="dbdbd9c0-0ee8-480d-91ab-9c9b2ff0b85f"  >
</g>
<g transform="matrix(1 0 0 1 540 540)" id="26bfc88b-a8c9-402f-a33d-72e75c58d419"  >
<rect style="stroke: none; stroke-width: 1; stroke-dasharray: none; stroke-linecap: butt; stroke-dashoffset: 0; stroke-linejoin: miter; stroke-miterlimit: 4; fill: rgb(255,255,255); fill-rule: nonzero; opacity: 1; visibility: hidden;" vector-effect="non-scaling-stroke"  x="-540" y="-540" rx="0" ry="0" width="1080" height="1080" />
</g>
<g transform="matrix(11.15 0 0 11.15 540 539.81)"  >
<path style="stroke: none; stroke-width: 1; stroke-dasharray: none; stroke-linecap: butt; stroke-dashoffset: 0; stroke-linejoin: miter; stroke-miterlimit: 4; fill: rgb(17,17,17); fill-rule: nonzero; opacity: 1;" vector-effect="non-scaling-stroke"  transform=" translate(-43.23, 19.63)" d="M 37.6 0.95 L 34 0.05 L 2.4 0.05 L 2.4 -2.75 L 7.1 -6.45 L 7.1 -34.4 L 1.55 -36.05 L 3.2 -39.3 L 33.5 -39.3 L 37.1 -40.2 L 37.1 -27.45 L 34.35 -26.35 L 28.2 -35.5 L 16.15 -35.5 L 16.15 -22 L 22.1 -22 L 25.75 -27.6 L 28.55 -27.6 L 28.55 -13.05 L 25.3 -11.4 L 22.05 -18.15 L 16.15 -18.15 L 16.15 -3.8 L 27.8 -3.8 L 34.85 -14 L 37.6 -12.85 L 37.6 0.95 Z M 84.9 -36.5 L 80.15 -32.5 L 80.15 0 L 75.85 0 L 52.4 -26.75 L 52.4 -5.9 L 59.5 -3.25 L 57.9 0 L 43.4 0 L 43.4 -2.8 L 48.1 -6.75 L 48.1 -33 L 42.55 -36.05 L 44.2 -39.3 L 53 -39.3 L 75.85 -13.3 L 75.85 -33.45 L 68.75 -36.05 L 70.4 -39.3 L 84.9 -39.3 L 84.9 -36.5 Z" stroke-linecap="round" />
</g>
<g transform="matrix(3.8 0 0 3.8 540.44 540)"  >
<path style="stroke: rgb(255,255,255); stroke-opacity: 0; stroke-width: 1; stroke-dasharray: none; stroke-linecap: butt; stroke-dashoffset: 0; stroke-linejoin: miter; stroke-miterlimit: 4; fill: rgb(0,0,0); fill-rule: nonzero; opacity: 1;" vector-effect="non-scaling-stroke"  transform=" translate(-197.76, -123.6)" d="M 113.817 34.773 C 160.92543317960627 -9.745010126368953 234.59456682039365 -9.745010126368932 281.703 34.773 L 270.821 34.773 C 228.92739014195442 -1.6620545794568002 166.5926098580455 -1.6620545794568073 124.69899999999996 34.773000000000046 L 113.817 34.773 M 113.817 212.427 C 160.92543317960627 256.9450101263689 234.59456682039365 256.9450101263689 281.703 212.42699999999996 L 270.821 212.427 C 228.92739014195445 248.8620545794568 166.5926098580456 248.86205457945684 124.69900000000001 212.42700000000002 L 113.817 212.427" stroke-linecap="round" />
</g>
</svg>